<svg xmlns="http://www.w3.org/2000/svg" xmlns:xlink="http://www.w3.org/1999/xlink" width="500" zoomAndPan="magnify" viewBox="0 0 375 374.999991" height="500" preserveAspectRatio="xMidYMid meet" version="1.0"><defs><clipPath id="17d6e2d1a4"><path d="M 56.589844 1 L 318 1 L 318 375 L 56.589844 375 Z M 56.589844 1 " clip-rule="nonzero"/></clipPath></defs><g clip-path="url(#17d6e2d1a4)"><path fill="#841f52" d="M 243.519531 374.882812 C 241.070312 374.882812 238.804688 373.882812 237.082031 372.253906 L 59.21875 194.390625 C 57.496094 192.667969 56.589844 190.402344 56.589844 187.953125 C 56.589844 185.503906 57.589844 183.238281 59.21875 181.515625 L 237.082031 3.652344 C 240.617188 0.117188 246.328125 0.117188 249.863281 3.652344 L 314.773438 68.5625 C 316.496094 70.285156 317.402344 72.550781 317.402344 75 C 317.402344 77.445312 316.40625 79.710938 314.773438 81.433594 L 208.253906 187.953125 L 314.863281 294.472656 C 318.398438 298.007812 318.398438 303.71875 314.863281 307.253906 L 249.957031 372.160156 C 248.234375 373.882812 245.875 374.882812 243.519531 374.882812 Z M 78.4375 187.953125 L 243.519531 353.035156 L 295.644531 300.90625 L 189.035156 194.390625 C 187.3125 192.667969 186.40625 190.402344 186.40625 187.953125 C 186.40625 185.503906 187.40625 183.238281 189.035156 181.515625 L 295.554688 75 L 243.429688 22.871094 Z M 78.4375 187.953125 " fill-opacity="1" fill-rule="nonzero"/></g></svg>